# xmcd
#
# Track frame offsets: 
#        150
#        12834
#        31105
#        48474
#        64206
#        78632
#        96321
#        115236
#        134113
#        154446
#        174563
#        194088
#        216406
#        240027
#        258793
#        276663
#        292468
#        310481
#
# Disc length: 4370 seconds
#
# Revision: 0
# Processed by: cddbd v1.5.2PL0 Copyright (c) Steve Scherf et al.
# Submitted via: ExactAudioCopy v1.1
#
DISCID=1e111012
DTITLE=Randy Meisner - One More Song - Randy Meisner
DYEAR=2007
DGENRE=Rock
TTITLE0=Hearts On Fire
TTITLE1=Gotta Get Away
TTITLE2=Come On Back To Me
TTITLE3=Deep Inside My Heart
TTITLE4=I Need You Bad
TTITLE5=One More Song
TTITLE6=Trouble Ahead
TTITLE7=White Shoes
TTITLE8=Anyway Bye Bye
TTITLE9=Never Been In Love
TTITLE10=Darkness Of The Heart
TTITLE11=Jealousy
TTITLE12=Tonight
TTITLE13=Playin' In The Deep End
TTITLE14=Strangers
TTITLE15=Still Runnin'
TTITLE16=Nothing Is Said
TTITLE17=Doin' It For Delilah
EXTD=
EXTT0=
EXTT1=
EXTT2=
EXTT3=
EXTT4=
EXTT5=
EXTT6=
EXTT7=
EXTT8=
EXTT9=
EXTT10=
EXTT11=
EXTT12=
EXTT13=
EXTT14=
EXTT15=
EXTT16=
EXTT17=
PLAYORDER=
